<svg width="200" height="200" viewBox="0 0 200 200" xmlns="http://www.w3.org/2000/svg">
  <!-- Background Circle -->
  <circle cx="100" cy="100" r="95" fill="#3b82f6" opacity="0.1"/>
  
  <!-- Outer Ring -->
  <circle cx="100" cy="100" r="85" fill="none" stroke="#3b82f6" stroke-width="3" opacity="0.3"/>
  
  <!-- Radar Sweep Effect -->
  <defs>
    <linearGradient id="radarGradient" x1="0%" y1="0%" x2="100%" y2="100%">
      <stop offset="0%" style="stop-color:#3b82f6;stop-opacity:0.8" />
      <stop offset="100%" style="stop-color:#06b6d4;stop-opacity:0.2" />
    </linearGradient>
  </defs>
  
  <!-- Inner Circle -->
  <circle cx="100" cy="100" r="70" fill="#ffffff" stroke="#3b82f6" stroke-width="4"/>
  
  <!-- Cyber "C" Shape -->
  <path d="M 140 100 A 40 40 0 1 1 100 60" fill="none" stroke="#3b82f6" stroke-width="6" stroke-linecap="round"/>
  
  <!-- Ping Wave Circles -->
  <circle cx="100" cy="100" r="35" fill="none" stroke="#3b82f6" stroke-width="2" opacity="0.6">
    <animate attributeName="r" from="20" to="50" dur="2s" repeatCount="indefinite"/>
    <animate attributeName="opacity" from="0.8" to="0" dur="2s" repeatCount="indefinite"/>
  </circle>
  
  <circle cx="100" cy="100" r="35" fill="none" stroke="#06b6d4" stroke-width="2" opacity="0.6">
    <animate attributeName="r" from="20" to="50" dur="2s" begin="0.5s" repeatCount="indefinite"/>
    <animate attributeName="opacity" from="0.8" to="0" dur="2s" begin="0.5s" repeatCount="indefinite"/>
  </circle>
  
  <!-- Center Dot -->
  <circle cx="100" cy="100" r="8" fill="#3b82f6">
    <animate attributeName="r" values="8;10;8" dur="1.5s" repeatCount="indefinite"/>
    <animate attributeName="opacity" values="1;0.7;1" dur="1.5s" repeatCount="indefinite"/>
  </circle>
  
  <!-- Monitoring Points -->
  <circle cx="130" cy="70" r="4" fill="#3b82f6"/>
  <circle cx="70" cy="130" r="4" fill="#3b82f6"/>
  <circle cx="130" cy="130" r="4" fill="#06b6d4"/>
  <circle cx="70" cy="70" r="4" fill="#06b6d4"/>
  
  <!-- Connection Lines -->
  <line x1="100" y1="100" x2="130" y2="70" stroke="#3b82f6" stroke-width="1" opacity="0.3"/>
  <line x1="100" y1="100" x2="70" y2="130" stroke="#3b82f6" stroke-width="1" opacity="0.3"/>
  <line x1="100" y1="100" x2="130" y2="130" stroke="#06b6d4" stroke-width="1" opacity="0.3"/>
  <line x1="100" y1="100" x2="70" y2="70" stroke="#06b6d4" stroke-width="1" opacity="0.3"/>
</svg>
